<svg width="160" height="16" viewBox="0 0 160 16" fill="none" xmlns="http://www.w3.org/2000/svg">
<path d="M0 0.0458453C0.201821 0.819628 0.61286 1.52595 1.18995 2.09064C1.76703 2.65532 2.48887 3.05753 3.27965 3.25501H8.43338L8.66764 3.30086V15.9542H11.8536V3.3467L12.1816 3.20917H17.3353C18.1239 3.00726 18.8433 2.60358 19.4197 2.03958C19.996 1.47559 20.4086 0.771626 20.6149 0L0 0V0.0458453ZM111.789 0.0458453H108.603V16H123.221C123.914 15.7438 124.532 15.3258 125.022 14.7825C125.512 14.2392 125.859 13.5869 126.032 12.8825H111.836V0L111.789 0.0458453ZM87.2855 3.16332C88.9722 2.70487 90.3777 1.4212 90.7526 0L72.9019 0.0458453V9.48997H87.4729V12.7908H76.041C75.1682 13.013 74.3535 13.414 73.6508 13.9672C72.9481 14.5204 72.3735 15.2133 71.9649 16H90.6589V6.37249H76.041V3.16332H87.2855ZM141.728 16H144.867V9.58166H156.392V16H159.531V6.37249H141.728V16ZM39.9649 3.20917H52.1464C52.9481 3.02362 53.6822 2.62621 54.2688 2.06029C54.8554 1.49438 55.2719 0.7817 55.4729 0L36.6852 0C36.8824 0.775978 37.2919 1.48474 37.8697 2.05014C38.4475 2.61555 39.1718 3.01623 39.9649 3.20917ZM39.9649 9.53582H52.1464C52.9481 9.35026 53.6822 8.95285 54.2688 8.38694C54.8554 7.82103 55.2719 7.10835 55.4729 6.32665H36.6852C36.8824 7.10263 37.2919 7.81138 37.8697 8.37679C38.4475 8.94219 39.1718 9.34288 39.9649 9.53582ZM39.9649 16H52.1464C52.9481 15.8144 53.6822 15.417 54.2688 14.8511C54.8554 14.2852 55.2719 13.5725 55.4729 12.7908H36.6852C36.8824 13.5668 37.2919 14.2756 37.8697 14.841C38.4475 15.4064 39.1718 15.8071 39.9649 16ZM144.539 3.20917H156.72C157.513 3.01623 158.238 2.61555 158.816 2.05014C159.393 1.48474 159.803 0.775978 160 0L141.259 0C141.456 0.775978 141.866 1.48474 142.444 2.05014C143.021 2.61555 143.746 3.01623 144.539 3.20917Z" fill="white"/>
</svg>
